<svg width="56" height="54" viewBox="0 0 56 54" fill="none" xmlns="http://www.w3.org/2000/svg">
<path d="M28 0.556763C22.4621 0.556763 17.0486 2.11176 12.444 5.02511C7.83946 7.93847 4.25063 12.0793 2.13138 16.9241C0.0121243 21.7688 -0.542369 27.0998 0.538017 32.2429C1.6184 37.3861 4.28514 42.1103 8.20101 45.8183C12.1169 49.5263 17.106 52.0515 22.5375 53.0746C27.9689 54.0976 33.5988 53.5725 38.7151 51.5658C43.8315 49.559 48.2045 46.1607 51.2812 41.8006C54.3578 37.4404 56 32.3143 56 27.0704C55.9915 20.041 53.0388 13.3018 47.7896 8.33128C42.5405 3.36075 35.4235 0.564783 28 0.556763ZM4.04001 27.8166L6.716 28.6612L10 33.3257V35.7555C10.0001 36.2577 10.2109 36.7393 10.586 37.0944L16 42.221V46.7227C12.4758 44.7915 9.52872 42.0427 7.43634 38.7351C5.34396 35.4275 4.17515 31.67 4.04001 27.8166ZM28 49.7963C26.2698 49.793 24.545 49.612 22.856 49.2566L24 46.0087L27.61 37.4637C27.7303 37.1784 27.7755 36.8697 27.7417 36.5642C27.7079 36.2587 27.5961 35.9655 27.416 35.71L24.594 31.7008C24.4113 31.4415 24.1638 31.2289 23.8736 31.0819C23.5833 30.9349 23.2592 30.858 22.93 30.858H13.07L10.574 27.3109L14.828 23.2827H18V27.0704H22V21.8927L29.736 9.07142L26.264 7.19274L24.554 10.0259H19.07L16.9 6.94086C19.8157 5.48394 23.02 4.61847 26.3086 4.39968C29.5972 4.18088 32.8979 4.61356 36 5.6701V11.9197C36 12.422 36.2107 12.9037 36.5858 13.2589C36.9609 13.614 37.4696 13.8136 38 13.8136H40.93C41.2592 13.8136 41.5833 13.7367 41.8736 13.5897C42.1638 13.4427 42.4113 13.2301 42.594 12.9708L44.348 10.4785C46.6323 12.496 48.48 14.9152 49.788 17.6012H41.64C41.1778 17.6015 40.73 17.7533 40.3727 18.0309C40.0154 18.3085 39.7706 18.6947 39.68 19.1239L38.234 27.5893C38.1656 27.9878 38.2335 28.3967 38.4277 28.7561C38.622 29.1155 38.9326 29.4068 39.314 29.5873L46 32.7519L47.37 40.4332C45.1501 43.33 42.238 45.6884 38.8715 47.3157C35.505 48.943 31.7797 49.793 28 49.7963Z" fill="#3D9776"/>
</svg>
