<svg width="25" height="25" viewBox="0 0 25 25" fill="none" xmlns="http://www.w3.org/2000/svg">
<path d="M14.8438 1.01562H10.1562C5.58594 1.95313 1.95313 5.54688 1.01562 10.1562V14.8438C1.95313 19.4531 5.58594 23.0469 10.1562 23.9844H14.8438C19.4531 23.0469 23.0469 19.4141 23.9844 14.8438V10.1562C23.0469 5.54688 19.4141 1.95313 14.8438 1.01562Z" fill="white"/>
<path d="M23.8981 15.2344C24.1117 14.3386 24.2194 13.4209 24.2188 12.5C24.2188 11.5586 24.1078 10.643 23.8981 9.76563H15.2344V1.10196C14.3386 0.888274 13.4209 0.780634 12.5 0.781253C11.5586 0.781253 10.643 0.89219 9.76563 1.10196V9.76563H1.10196C0.888274 10.6614 0.780634 11.5791 0.781253 12.5C0.781253 13.4414 0.89219 14.357 1.10196 15.2344H9.76563V23.8981C10.6614 24.1117 11.5791 24.2194 12.5 24.2188C13.4414 24.2188 14.357 24.1078 15.2344 23.8981V15.2344H23.8981Z" fill="#CE1124"/>
</svg>
