<svg width="64" height="64" viewBox="0 0 64 64" fill="none" xmlns="http://www.w3.org/2000/svg">
<path d="M49.3454 3.88593H11.4691C6.23931 3.88593 2 8.12523 2 13.355V51.2313C2 56.4611 6.23931 60.7004 11.4691 60.7004H49.3454C54.5752 60.7004 58.8145 56.4611 58.8145 51.2313V13.355C58.8145 8.12523 54.5752 3.88593 49.3454 3.88593ZM17.1505 26.6117H12.3308V30.8728H17.1505V33.7135H12.3308V40.8153H9.57527V23.771H17.1505V26.6117ZM28.9632 40.8153H26.1026L23.7628 33.7135H22.6975V40.8153H19.9913V23.771H24.7258C27.3374 23.771 29.4603 26.001 29.4603 28.7423C29.4603 30.8226 28.236 32.6094 26.505 33.349L28.9632 40.8153ZM39.8763 26.6117H35.0566V30.8728H39.8763V33.7135H35.0566V37.9746H39.8763V40.8153H32.3011V23.771H39.8763V26.6117ZM51.2392 26.6117H46.4195V30.8728H51.2392V33.7135H46.4195V37.9746H51.2392V40.8153H43.664V23.771H51.2392V26.6117Z" fill="#3D9776"/>
<path d="M23.9999 26.0002H21.8569V30.5002H23.9999C25.1819 30.5002 26.1429 29.4902 26.1429 28.2502C26.1429 27.0102 25.1819 26.0002 23.9999 26.0002Z" fill="#3D9776"/>
</svg>
