<svg width="58" height="55" viewBox="0 0 58 55" fill="none" xmlns="http://www.w3.org/2000/svg">
<path d="M3.39995 0.200012H54.5999C56.3599 0.200012 57.7999 1.64001 57.7999 3.40001V54.6L0.199951 54.536V3.40001C0.199951 1.64001 1.63995 0.200012 3.39995 0.200012ZM16.2 3.40001L9.79995 13H13L19.4 3.40001H16.2ZM29 3.40001H25.7999L19.4 13H22.5999L29 3.40001ZM38.5999 3.40001H35.3999L29 13H32.1999L38.5999 3.40001ZM48.1999 3.40001H44.9999L38.5999 13H41.7999L48.1999 3.40001ZM51.3999 48.2V16.2H6.59995V48.2H51.3999ZM22.5999 19.4L41.7999 32.2L22.5999 45V19.4Z" fill="#3D9776"/>
</svg>
