<svg width="64" height="64" viewBox="0 0 64 64" fill="none" xmlns="http://www.w3.org/2000/svg">
<path d="M32 1C14.874 1 1 14.876 1 32C1 49.124 14.876 63 32 63C49.126 63 63 49.124 63 32C63 14.876 49.124 1 32 1ZM47.226 22.238L42.138 46.214C41.762 47.914 40.75 48.326 39.338 47.526L31.588 41.814L27.85 45.414C27.438 45.826 27.088 46.176 26.288 46.176L26.838 38.288L41.2 25.312C41.826 24.762 41.062 24.45 40.236 25L22.486 36.174L14.836 33.786C13.174 33.262 13.136 32.124 15.186 31.324L45.074 19.798C46.462 19.298 47.674 20.136 47.224 22.236L47.226 22.238Z" fill="#3D9776"/>
</svg>
