<svg width="263" height="293" viewBox="0 0 263 293" fill="none" xmlns="http://www.w3.org/2000/svg">
<path d="M0.640625 59.3125C0.640625 41.7344 6.36979 27.5417 17.8281 16.7344C29.2865 5.92708 44.651 0.523438 63.9219 0.523438C83.4531 0.523438 98.8828 5.92708 110.211 16.7344C121.539 27.4115 127.203 41.9297 127.203 60.2891V74.3516C127.203 91.9297 121.539 106.057 110.211 116.734C98.8828 127.411 83.5833 132.75 64.3125 132.75C45.1719 132.75 29.7422 127.477 18.0234 116.93C6.4349 106.253 0.640625 91.6693 0.640625 73.1797V59.3125ZM43.0234 74.3516C43.0234 81.1224 44.9115 86.6562 48.6875 90.9531C52.4635 95.1198 57.6719 97.2031 64.3125 97.2031C77.9844 97.2031 84.8203 88.4792 84.8203 71.0312V59.3125C84.8203 52.5417 82.9974 47.0078 79.3516 42.7109C75.7057 38.2839 70.5625 36.0703 63.9219 36.0703C57.5417 36.0703 52.4635 38.2188 48.6875 42.5156C44.9115 46.6823 43.0234 52.4115 43.0234 59.7031V74.3516ZM135.797 219.273C135.797 201.565 141.526 187.372 152.984 176.695C164.573 166.018 179.938 160.68 199.078 160.68C218.479 160.68 233.909 165.953 245.367 176.5C256.826 187.047 262.555 201.76 262.555 220.641V234.312C262.555 252.021 256.891 266.214 245.562 276.891C234.234 287.568 218.87 292.906 199.469 292.906C180.328 292.906 164.898 287.633 153.18 277.086C141.591 266.409 135.797 251.826 135.797 233.336V219.273ZM177.984 234.312C177.984 240.432 180.068 245.836 184.234 250.523C188.401 255.081 193.479 257.359 199.469 257.359C212.099 257.359 218.935 251.37 219.977 239.391L220.172 219.273C220.172 212.372 218.284 206.839 214.508 202.672C210.732 198.375 205.589 196.227 199.078 196.227C192.828 196.227 187.815 198.245 184.039 202.281C180.263 206.188 178.245 211.526 177.984 218.297V234.312ZM76.8125 267.711L46.1484 252.281L185.016 30.0156L215.68 45.4453L76.8125 267.711Z" fill="#3D9776"/>
</svg>
