<svg width="418" height="376" viewBox="0 0 418 376" fill="none" xmlns="http://www.w3.org/2000/svg">
<path d="M396.5 42.1667H375.667V21.3333C375.667 15.808 373.472 10.5089 369.565 6.60194C365.658 2.69493 360.359 0.5 354.833 0.5C349.308 0.5 344.009 2.69493 340.102 6.60194C336.195 10.5089 334 15.808 334 21.3333V42.1667H83.9998V21.3333C83.9998 15.808 81.8049 10.5089 77.8979 6.60194C73.9909 2.69493 68.6918 0.5 63.1665 0.5C57.6412 0.5 52.3421 2.69493 48.4351 6.60194C44.5281 10.5089 42.3332 15.808 42.3332 21.3333V42.1667H21.4998C15.9745 42.1667 10.6755 44.3616 6.76845 48.2686C2.86144 52.1756 0.666504 57.4747 0.666504 63V188C0.666504 193.525 2.86144 198.824 6.76845 202.731C10.6755 206.638 15.9745 208.833 21.4998 208.833H42.3332V354.667C42.3332 360.192 44.5281 365.491 48.4351 369.398C52.3421 373.305 57.6412 375.5 63.1665 375.5C68.6918 375.5 73.9909 373.305 77.8979 369.398C81.8049 365.491 83.9998 360.192 83.9998 354.667V208.833H334V354.667C334 360.192 336.195 365.491 340.102 369.398C344.009 373.305 349.308 375.5 354.833 375.5C360.359 375.5 365.658 373.305 369.565 369.398C373.472 365.491 375.667 360.192 375.667 354.667V208.833H396.5C402.025 208.833 407.324 206.638 411.231 202.731C415.138 198.824 417.333 193.525 417.333 188V63C417.333 57.4747 415.138 52.1756 411.231 48.2686C407.324 44.3616 402.025 42.1667 396.5 42.1667ZM42.3332 136.333V83.8333H94.8332L42.3332 136.333ZM70.2498 167.167L153.583 83.8333H222.958L139.625 167.167H70.2498ZM198.375 167.167L281.708 83.8333H347.958L264.625 167.167H198.375ZM375.667 167.167H323.375L375.667 114.875V167.167Z" fill="white"/>
</svg>
